<?xml version="1.0" encoding="utf-8"?>
<svg xmlns="http://www.w3.org/2000/svg" width="500" height="163" viewBox="17.396 54.894 499.015 162.213">
  <g transform="matrix(1, 0, 0, 1, -1.639997, 7.834979)">
    <circle cx="-137.82" cy="169.607" r="33.7" style="fill: none; stroke-miterlimit: 10; stroke: #1a1f36;" transform="matrix(-1, 0, 0, 1, 0, 0)"/>
    <circle cx="-410.27" cy="169.607" r="33.7" style="fill: none; stroke-miterlimit: 10; stroke: #1a1f36;" transform="matrix(-1, 0, 0, 1, 0, 0)"/>
    <circle cx="-137.82" cy="169.607" r="24.54" style="fill: #1a1f36; stroke-miterlimit: 10; stroke: #1a1f36;" transform="matrix(-1, 0, 0, 1, 0, 0)"/>
    <circle cx="-410.27" cy="169.607" r="24.54" style="fill: #1a1f36; stroke-miterlimit: 10; stroke: #1a1f36;" transform="matrix(-1, 0, 0, 1, 0, 0)"/>
    <path d="M 155.023 117.277 C 161.173 121.947 167.953 129.457 176.283 142.097 C 184.613 154.737 196.453 171.007 196.453 171.007" style="fill: none; stroke-miterlimit: 10; transform-box: fill-box; transform-origin: 50% 50%; stroke: #1a1f36;" transform="matrix(-1, 0, 0, -1, 0.000002, -0.000002)"/>
    <path d="M 51.383 96.377 C 51.383 96.377 48.383 95.537 45.373 93.587 C 45.373 93.587 66.113 69.287 66.463 69.147 C 72.323 68.797 75.543 68.797 75.543 68.797" style="fill: none; stroke-miterlimit: 10; transform-box: fill-box; transform-origin: 50% 50%; stroke: #1a1f36;" transform="matrix(-1, 0, 0, -1, -0.000002, -0.000011)"/>
    <path d="M 26.42 60.717 C 26.42 59.227 27.835 57.604 29.643 56.354 C 31.451 55.104 33.651 54.226 35.221 54.226 C 38.361 54.226 78.321 54.226 78.321 54.226 L 78.322 54.226 L 78.322 54.227 L 79.162 70.787 C 79.162 81.232 83.349 90.701 90.137 97.61 C 96.924 104.519 106.312 108.866 116.711 109.066 C 127.446 109.271 137.205 104.879 144.282 97.751 C 151.358 90.624 155.751 80.762 155.75 70.027 L 155.75 56.126 L 353.532 59.176 L 353.532 59.177 C 353.532 59.177 353.572 66.667 353.602 70.737 C 353.602 81.197 357.792 90.679 364.585 97.596 C 371.379 104.513 380.776 108.866 391.191 109.066 C 401.941 109.271 411.713 104.874 418.798 97.738 C 425.883 90.602 430.28 80.727 430.28 69.977 L 430.28 64.666 L 430.281 64.666 C 446.331 64.756 477.141 64.946 484.771 65.426 C 492.401 65.906 495.361 66.286 497.172 69.146 C 498.562 71.356 501.042 77.366 502.102 79.996 C 502.472 80.916 502.282 81.977 501.592 82.697 C 501.442 82.847 501.302 82.987 501.162 83.107 C 500.522 83.667 500.232 84.516 500.352 85.356 L 502.272 98.846 C 502.357 99.416 502.192 99.967 501.862 100.389 C 501.532 100.812 501.037 101.107 500.461 101.167 C 498.116 101.422 496.419 102.277 495.258 103.562 C 494.097 104.847 493.472 106.562 493.272 108.536 C 492.962 111.696 492.642 115.036 492.482 116.736 C 492.447 117.081 492.524 117.418 492.688 117.707 C 492.852 117.996 493.101 118.235 493.411 118.385 L 494.441 118.885 C 495.031 119.175 495.401 119.786 495.382 120.446 C 495.182 126.696 494.702 128.926 494.292 131.456 C 487.062 140.676 473.052 156.886 456.973 173.895 C 459.113 176.275 462.072 178.044 462.072 178.044 L 462.071 178.045 C 447.141 180.685 387.161 187.145 309.741 187.145 C 266.171 187.145 238.381 183.905 216.581 175.555 C 194.781 167.205 169.371 152.195 147.091 139.485 C 137.721 139.485 115.021 137.635 91.601 132.395 C 68.181 127.145 59.721 124.915 50.081 119.325 C 40.461 113.735 37.021 108.325 33.751 102.475 C 30.481 96.635 27.901 94.225 27.901 94.225 L 27.901 80.515 C 27.901 80.08 28.079 79.684 28.365 79.398 C 28.651 79.112 29.047 78.934 29.482 78.934 L 29.652 78.934 C 30.087 78.934 30.479 78.762 30.764 78.482 C 31.049 78.202 31.226 77.815 31.231 77.385 L 31.441 63.226 L 28.852 63.226 C 28.852 63.226 28.242 62.931 27.633 62.47 C 27.024 62.009 26.416 61.381 26.421 60.715 Z" style="fill: #1a1f36; stroke-miterlimit: 10; transform-box: fill-box; transform-origin: 50% 50%; stroke: #1a1f36;" transform="matrix(-1, 0, 0, -1, -0.000009, 0.000004)"/>
    <path d="M 460.598 178.288 C 459.953 178.288 459.477 178.015 459.188 177.573 C 458.899 177.13 458.797 176.517 458.897 175.837 C 459.097 174.477 464.877 160.417 464.877 160.417 L 464.877 160.416 C 464.877 160.416 482.468 160.416 485.318 160.416 C 486.743 160.416 487.813 160.739 488.536 161.214 C 489.259 161.689 489.634 162.317 489.669 162.927 C 489.739 164.147 490.279 173.247 490.349 175.357 C 490.384 176.412 490.044 177.38 489.433 178.084 C 488.822 178.788 487.939 179.228 486.888 179.228 C 484.788 179.228 460.623 178.289 460.598 178.288 Z" style="fill: transparent; stroke-miterlimit: 10; transform-box: fill-box; transform-origin: 50% 50%; stroke: #1a1f36;" transform="matrix(-1, 0, 0, -1, 0.000028, 0.000003)"/>
    <path d="M 475.788 143.039 C 472.438 142.449 460.678 137.999 453.548 135.469 C 451.978 134.919 450.648 133.859 449.747 132.459 C 448.597 130.669 447.197 128.509 446.347 127.219 C 446.117 126.864 446.069 126.448 446.176 126.076 C 446.282 125.703 446.543 125.373 446.928 125.188 C 448.728 124.328 451.788 123.698 455.638 123.698 C 460.728 123.698 476.528 127.018 476.528 127.018 C 481.548 130.778 490.478 139.638 490.478 139.638 C 485.898 144.51 479.547 143.7 475.787 143.04 Z" style="fill: transparent; stroke-miterlimit: 10; transform-box: fill-box; transform-origin: 50% 50%; stroke: #1a1f36;" transform="matrix(-1, 0, 0, -1, -0.000037, 0.000006)"/>
    <path d="M 360.093 174.187 C 360.093 159.657 360.923 137.987 365.573 125.007" style="fill: none; stroke-miterlimit: 10; transform-box: fill-box; transform-origin: 50% 50%; stroke: #1a1f36;" transform="matrix(-1, 0, 0, -1, -0.000004, 0.000001)"/>
    <path d="M 288.547 89.558 C 265.997 77.848 252.297 68.508 249.927 66.638 C 248.747 65.703 248.032 64.738 247.738 63.949 C 247.591 63.555 247.549 63.204 247.608 62.923 C 247.666 62.642 247.825 62.431 248.077 62.316 C 275.237 64.026 339.747 68.136 364.907 68.756 C 366.028 82.457 369.388 109.737 369.388 109.737 C 334.017 109.738 311.097 101.268 288.547 89.558 Z" style="fill: transparent; stroke-miterlimit: 10; transform-box: fill-box; transform-origin: 50% 50%; stroke: #1a1f36;" transform="matrix(-1, 0, 0, -1, -0.000031, -0.000007)"/>
    <path d="M 238.213 100.777 C 215.753 103.247 175.233 103.117 160.243 103.087 L 155.912 62.305 C 155.912 62.305 206.593 64.915 244.663 65.225 C 244.663 65.225 241.334 82.726 238.214 100.776 Z" style="fill: transparent; stroke-miterlimit: 10; transform-box: fill-box; transform-origin: 50% 50%; stroke: #1a1f36;" transform="matrix(-1, 0, 0, -1, -0.000004, -0.000004)"/>
    <path d="M 143.7 90.915 C 141.4 93.865 137.58 96.055 132.559 96.815 C 127.739 97.545 105.589 99.175 91.839 99.985 C 91.394 100.015 90.998 99.827 90.736 99.523 C 90.473 99.219 90.343 98.799 90.428 98.363 L 96.798 66.473 C 96.908 65.928 97.203 65.463 97.61 65.136 C 98.016 64.81 98.534 64.622 99.089 64.632 L 149.809 65.682 C 152.649 68.412 155.599 72.452 155.599 72.452 C 153.629 77.803 145.989 87.963 143.699 90.913 Z" style="fill: transparent; stroke-miterlimit: 10; transform-box: fill-box; transform-origin: 50% 50%; stroke: #1a1f36;" transform="matrix(-1, 0, 0, -1, 0.000006, 0.000015)"/>
    <path d="M 63.572 109.267 C 63.737 110.212 63.512 112.062 62.844 113.871 C 62.176 115.68 61.066 117.448 59.461 118.228 C 56.251 119.798 52.231 120.698 46.391 120.698 C 42.61 111.407 38.25 102.137 38.25 102.137 L 62.001 102.536 C 62.001 102.536 63.241 107.377 63.571 109.267 Z" style="fill: transparent; stroke-miterlimit: 10; transform-box: fill-box; transform-origin: 50% 50%; stroke: #1a1f36;" transform="matrix(-1, 0, 0, -1, 0, 0.000004)"/>
    <path d="M 251.673 172.747 C 251.423 169.767 250.313 161.877 250.313 152.377 C 250.313 142.877 250.683 127.107 251.673 120.697" style="fill: none; stroke-miterlimit: 10; transform-box: fill-box; transform-origin: 50% 50%; stroke: #1a1f36;" transform="matrix(-1, 0, 0, -1, -0.000019, 0)"/>
  </g>
</svg>
