<?xml version="1.0" encoding="utf-8"?>
<svg xmlns="http://www.w3.org/2000/svg" width="500" height="163" viewBox="17.396 54.894 499.015 162.213">
  <g transform="matrix(1, 0, 0, 1, -1.639997, 7.834979)">
    <circle cx="-137.82" cy="169.607" r="24.54" style="fill: #1a1f36; stroke-miterlimit: 10; stroke: #1a1f36;" transform="matrix(-1, 0, 0, 1, 0, 0)"/>
    <circle cx="-137.82" cy="169.607" r="33.7" style="fill: none; stroke-miterlimit: 10; stroke: #1a1f36;" transform="matrix(-1, 0, 0, 1, 0, 0)"/>
    <circle cx="-410.27" cy="169.607" r="24.54" style="fill: #1a1f36; stroke-miterlimit: 10; stroke: #1a1f36;" transform="matrix(-1, 0, 0, 1, 0, 0)"/>
    <circle cx="-410.27" cy="169.607" r="33.7" style="fill: none; stroke-miterlimit: 10; stroke: #1a1f36;" transform="matrix(-1, 0, 0, 1, 0, 0)"/>
    <path d="M 155.023 117.277 C 161.173 121.947 167.953 129.457 176.283 142.097 C 184.613 154.737 196.453 171.007 196.453 171.007" style="fill: none; stroke-miterlimit: 10; transform-box: fill-box; transform-origin: 50% 50%; stroke: #1a1f36;" transform="matrix(-1, 0, 0, -1, 0.000002, -0.000002)"/>
    <path d="M 51.383 96.377 C 51.383 96.377 48.383 95.537 45.373 93.587 C 45.373 93.587 66.113 69.287 66.463 69.147 C 72.323 68.797 75.543 68.797 75.543 68.797" style="fill: none; stroke-miterlimit: 10; transform-box: fill-box; transform-origin: 50% 50%; stroke: #1a1f36;" transform="matrix(-1, 0, 0, -1, -0.000002, -0.000011)"/>
    <!-- Кузов - тёмный -->
    <path d="M 28.851 63.227 L 31.441 63.227 L 31.231 77.387 C 31.221 78.247 30.521 78.937 29.651 78.937 L 29.481 78.937 C 28.611 78.937 27.901 79.647 27.901 80.517 L 27.901 94.227 C 27.901 94.227 30.481 96.637 33.751 102.477 C 37.021 108.327 40.461 113.737 50.081 119.327 C 59.721 124.917 68.181 127.147 91.601 132.397 C 115.021 137.637 137.721 139.487 147.091 139.487 C 169.371 152.197 194.781 167.207 216.581 175.557 C 238.381 183.907 266.171 187.147 309.741 187.147 C 387.161 187.147 447.141 180.687 462.071 178.047 C 462.071 178.047 459.111 176.277 456.971 173.897 C 473.051 156.887 487.061 140.677 494.291 131.457 C 494.701 128.927 495.181 126.697 495.381 120.447 C 495.401 119.787 495.031 119.177 494.441 118.887 L 493.411 118.387 C 492.791 118.087 492.411 117.427 492.481 116.737 C 492.641 115.037 492.961 111.697 493.271 108.537 C 493.671 104.587 495.771 101.677 500.461 101.167 C 501.611 101.047 502.441 99.987 502.271 98.847 L 500.351 85.357 C 500.231 84.517 500.521 83.667 501.161 83.107 C 501.301 82.987 501.441 82.847 501.591 82.697 C 502.281 81.977 502.471 80.917 502.101 79.997 C 501.041 77.367 498.561 71.357 497.171 69.147 C 495.361 66.287 492.401 65.907 484.771 65.427 C 477.141 64.947 446.331 64.757 430.281 64.667 L 430.281 69.977 C 430.281 91.477 412.691 109.477 391.191 109.067 C 370.361 108.667 353.601 91.657 353.601 70.737 C 353.571 66.667 353.531 59.177 353.531 59.177 L 155.751 56.127 L 155.751 70.027 C 155.751 91.497 138.181 109.477 116.711 109.067 C 95.911 108.667 79.161 91.677 79.161 70.787 L 78.321 54.227 C 78.321 54.227 38.361 54.227 35.221 54.227 C 32.081 54.227 26.421 57.737 26.421 60.717 C 26.411 62.047 28.851 63.227 28.851 63.227 Z" style="fill: #1a1f36; stroke-miterlimit: 10; transform-box: fill-box; transform-origin: 50% 50%; stroke: #1a1f36;" transform="matrix(-1, 0, 0, -1, -0.000009, 0.000004)"/>
    <!-- Фара передняя - прозрачная -->
    <path d="M 460.598 178.287 C 459.308 178.287 458.698 177.197 458.898 175.837 C 459.098 174.477 464.878 160.417 464.878 160.417 C 464.878 160.417 482.468 160.417 485.318 160.417 C 488.168 160.417 489.598 161.707 489.668 162.927 C 489.738 164.147 490.278 173.247 490.348 175.357 C 490.418 177.467 488.988 179.227 486.888 179.227 C 484.788 179.227 460.598 178.287 460.598 178.287 Z" style="fill: transparent; stroke-miterlimit: 10; transform-box: fill-box; transform-origin: 50% 50%; stroke: #1a1f36;" transform="matrix(-1, 0, 0, -1, 0.000028, 0.000003)"/>
    <!-- Фара задняя - прозрачная -->
    <path d="M 490.478 139.638 C 490.478 139.638 481.548 130.778 476.528 127.018 C 476.528 127.018 460.728 123.698 455.638 123.698 C 451.788 123.698 448.728 124.328 446.928 125.188 C 446.158 125.558 445.888 126.508 446.348 127.218 C 447.198 128.508 448.598 130.668 449.748 132.458 C 450.648 133.858 451.978 134.918 453.548 135.468 C 460.678 137.998 472.438 142.448 475.788 143.038 C 479.548 143.698 485.898 144.508 490.478 139.638 Z" style="fill: transparent; stroke-miterlimit: 10; transform-box: fill-box; transform-origin: 50% 50%; stroke: #1a1f36;" transform="matrix(-1, 0, 0, -1, -0.000037, 0.000006)"/>
    <path d="M 360.093 174.187 C 360.093 159.657 360.923 137.987 365.573 125.007" style="fill: none; stroke-miterlimit: 10; transform-box: fill-box; transform-origin: 50% 50%; stroke: #1a1f36;" transform="matrix(-1, 0, 0, -1, -0.000004, 0.000001)"/>
    <!-- Окно переднее - прозрачное -->
    <path d="M 369.387 109.737 C 369.387 109.737 366.027 82.457 364.907 68.757 C 339.747 68.137 275.237 64.027 248.077 62.317 C 247.067 62.777 247.567 64.767 249.927 66.637 C 252.297 68.507 265.997 77.847 288.547 89.557 C 311.097 101.267 334.017 109.737 369.387 109.737 Z" style="fill: transparent; stroke-miterlimit: 10; transform-box: fill-box; transform-origin: 50% 50%; stroke: #1a1f36;" transform="matrix(-1, 0, 0, -1, -0.000031, -0.000007)"/>
    <!-- Окно среднее - прозрачное -->
    <path d="M 244.663 65.226 C 206.593 64.916 155.913 62.306 155.913 62.306 L 160.243 103.086 C 175.233 103.116 215.753 103.246 238.213 100.776 C 241.333 82.726 244.663 65.226 244.663 65.226 Z" style="fill: transparent; stroke-miterlimit: 10; transform-box: fill-box; transform-origin: 50% 50%; stroke: #1a1f36;" transform="matrix(-1, 0, 0, -1, -0.000004, -0.000004)"/>
    <!-- Окно заднее - прозрачное -->
    <path d="M 155.599 72.454 C 155.599 72.454 152.649 68.414 149.809 65.684 L 99.089 64.634 C 97.979 64.614 97.019 65.384 96.799 66.474 L 90.429 98.364 C 90.259 99.234 90.949 100.044 91.839 99.984 C 105.589 99.174 127.739 97.544 132.559 96.814 C 137.579 96.054 141.399 93.864 143.699 90.914 C 145.989 87.964 153.629 77.804 155.599 72.454 Z" style="fill: transparent; stroke-miterlimit: 10; transform-box: fill-box; transform-origin: 50% 50%; stroke: #1a1f36;" transform="matrix(-1, 0, 0, -1, 0.000006, 0.000015)"/>
    <!-- Фара маленькая - прозрачная -->
    <path d="M 62.001 102.537 L 38.251 102.137 C 38.251 102.137 42.611 111.407 46.391 120.697 C 52.231 120.697 56.251 119.797 59.461 118.227 C 62.671 116.667 63.901 111.157 63.571 109.267 C 63.241 107.377 62.001 102.537 62.001 102.537 Z" style="fill: transparent; stroke-miterlimit: 10; transform-box: fill-box; transform-origin: 50% 50%; stroke: #1a1f36;" transform="matrix(-1, 0, 0, -1, 0, 0.000004)"/>
    <path d="M 251.673 172.747 C 251.423 169.767 250.313 161.877 250.313 152.377 C 250.313 142.877 250.683 127.107 251.673 120.697" style="fill: none; stroke-miterlimit: 10; transform-box: fill-box; transform-origin: 50% 50%; stroke: #1a1f36;" transform="matrix(-1, 0, 0, -1, -0.000019, 0)"/>
  </g>
</svg>
