<?xml version="1.0" encoding="utf-8"?>
<svg xmlns="http://www.w3.org/2000/svg" width="500" height="163" viewBox="17.396 54.894 499.015 162.213">
  <g transform="matrix(1, 0, 0, 1, -1.639997, 7.834979)">
    <circle cx="-137.82" cy="169.607" r="33.7" style="fill: #ffffff; stroke-miterlimit: 10; stroke: #1a1f36;" transform="matrix(-1, 0, 0, 1, 0, 0)"/>
    <circle cx="-410.27" cy="169.607" r="33.7" style="fill: #ffffff; stroke-miterlimit: 10; stroke: #1a1f36;" transform="matrix(-1, 0, 0, 1, 0, 0)"/>
    <circle cx="-137.82" cy="169.607" r="24.54" style="fill: #1a1f36; stroke-miterlimit: 10; stroke: #1a1f36;" transform="matrix(-1, 0, 0, 1, 0, 0)"/>
    <circle cx="-410.27" cy="169.607" r="24.54" style="fill: #1a1f36; stroke-miterlimit: 10; stroke: #1a1f36;" transform="matrix(-1, 0, 0, 1, 0, 0)"/>
    <path d="M 26.419 60.717 C 26.419 59.227 27.834 57.603 29.642 56.353 C 31.45 55.103 33.65 54.225 35.221 54.225 C 38.361 54.225 78.321 54.225 78.321 54.225 L 78.323 54.225 L 78.323 54.227 L 79.163 70.787 C 79.163 81.232 83.35 90.7 90.138 97.609 C 96.925 104.518 106.313 108.865 116.711 109.065 C 127.446 109.27 137.204 104.878 144.281 97.75 C 151.357 90.623 155.75 80.762 155.749 70.027 L 155.749 56.125 L 353.533 59.175 L 353.533 59.177 C 353.533 59.182 353.573 66.667 353.603 70.737 C 353.603 81.197 357.793 90.678 364.586 97.595 C 371.38 104.512 380.777 108.865 391.191 109.065 C 401.941 109.27 411.712 104.873 418.797 97.737 C 425.882 90.601 430.279 80.727 430.279 69.977 L 430.279 64.665 L 430.281 64.665 C 446.331 64.755 477.141 64.945 484.771 65.425 C 492.401 65.905 495.361 66.285 497.173 69.145 C 498.563 71.355 501.043 77.365 502.103 79.995 C 502.473 80.915 502.283 81.977 501.593 82.697 C 501.443 82.847 501.303 82.987 501.163 83.107 C 500.523 83.667 500.233 84.515 500.353 85.355 L 502.273 98.845 C 502.358 99.415 502.193 99.967 501.863 100.389 C 501.533 100.812 501.038 101.107 500.461 101.167 C 498.116 101.422 496.42 102.277 495.259 103.562 C 494.098 104.847 493.473 106.562 493.273 108.535 C 492.963 111.695 492.643 115.035 492.483 116.735 C 492.448 117.08 492.525 117.417 492.689 117.705 C 492.853 117.994 493.102 118.233 493.412 118.383 L 494.442 118.883 C 495.032 119.173 495.402 119.785 495.384 120.445 C 495.184 126.695 494.704 128.925 494.294 131.455 C 487.064 140.675 473.054 156.885 456.976 173.893 C 459.116 176.273 462.073 178.044 462.073 178.044 C 447.143 180.684 387.163 187.144 309.743 187.144 C 266.173 187.144 238.383 183.904 216.583 175.554 C 194.783 167.204 169.373 152.194 147.093 139.484 C 137.723 139.484 115.023 137.634 91.603 132.394 C 68.183 127.144 59.723 124.914 50.083 119.324 C 40.463 113.734 37.023 108.324 33.753 102.474 C 30.483 96.634 27.903 94.224 27.903 94.224 L 27.903 80.514 C 27.903 80.079 28.081 79.682 28.367 79.396 C 28.653 79.11 29.05 78.932 29.485 78.932 L 29.655 78.932 C 30.09 78.932 30.481 78.76 30.766 78.48 C 31.051 78.2 31.228 77.813 31.233 77.384 L 31.443 63.226 L 28.855 63.226 C 28.855 63.226 28.245 62.931 27.636 62.47 C 27.027 62.009 26.419 61.381 26.424 60.714 Z" style="fill: #1a1f36; stroke-miterlimit: 10; transform-box: fill-box; transform-origin: 50% 50%; stroke: #1a1f36;" transform="matrix(-1, 0, 0, -1, -0.000009, 0.000004)"/>
    <path d="M 155.023 117.277 C 161.173 121.947 167.953 129.457 176.283 142.097 C 184.613 154.737 196.453 171.007 196.453 171.007" style="fill: none; stroke-miterlimit: 10; transform-box: fill-box; transform-origin: 50% 50%; stroke: #1a1f36;" transform="matrix(-1, 0, 0, -1, 0.000002, -0.000002)"/>
    <path d="M 51.383 96.377 C 51.383 96.377 48.383 95.537 45.373 93.587 C 45.373 93.587 66.113 69.287 66.463 69.147 C 72.323 68.797 75.543 68.797 75.543 68.797" style="fill: none; stroke-miterlimit: 10; transform-box: fill-box; transform-origin: 50% 50%; stroke: #1a1f36;" transform="matrix(-1, 0, 0, -1, -0.000002, -0.000011)"/>
    <path d="M 460.598 178.289 C 459.953 178.289 459.476 178.016 459.187 177.574 C 458.898 177.131 458.796 176.517 458.896 175.837 C 459.096 174.477 464.852 160.475 464.876 160.417 L 464.876 160.415 C 464.876 160.415 482.468 160.415 485.318 160.415 C 486.743 160.415 487.813 160.738 488.537 161.213 C 489.26 161.688 489.635 162.317 489.67 162.927 C 489.74 164.147 490.28 173.247 490.35 175.357 C 490.385 176.412 490.045 177.381 489.434 178.085 C 488.823 178.789 487.939 179.229 486.888 179.229 C 484.788 179.229 460.634 178.29 460.598 178.289 Z" style="fill: #ffffff; stroke-miterlimit: 10; transform-box: fill-box; transform-origin: 50% 50%; stroke: #1a1f36;" transform="matrix(-1, 0, 0, -1, 0.000028, 0.000003)"/>
    <path d="M 475.788 143.04 C 472.438 142.45 460.678 138 453.548 135.47 C 451.978 134.92 450.648 133.86 449.746 132.46 C 448.596 130.67 447.196 128.51 446.346 127.22 C 446.116 126.865 446.068 126.448 446.175 126.076 C 446.281 125.703 446.542 125.373 446.928 125.187 C 448.728 124.327 451.788 123.697 455.638 123.697 C 460.728 123.697 476.528 127.017 476.528 127.017 C 481.548 130.777 490.478 139.637 490.478 139.637 C 485.898 144.511 479.546 143.701 475.786 143.041 Z" style="fill: #ffffff; stroke-miterlimit: 10; transform-box: fill-box; transform-origin: 50% 50%; stroke: #1a1f36;" transform="matrix(-1, 0, 0, -1, -0.000037, 0.000006)"/>
    <path d="M 360.093 174.187 C 360.093 159.657 360.923 137.987 365.573 125.007" style="fill: none; stroke-miterlimit: 10; transform-box: fill-box; transform-origin: 50% 50%; stroke: #1a1f36;" transform="matrix(-1, 0, 0, -1, -0.000004, 0.000001)"/>
    <path d="M 288.547 89.56 C 265.997 77.85 252.297 68.51 249.927 66.64 C 248.747 65.705 248.032 64.74 247.738 63.951 C 247.591 63.557 247.549 63.206 247.608 62.923 C 247.666 62.642 247.825 62.429 248.079 62.314 C 275.239 64.024 339.749 68.134 364.909 68.754 C 366.032 82.457 369.392 109.737 369.392 109.737 C 334.019 109.74 311.099 101.27 288.549 89.56 Z" style="fill: #ffffff; stroke-miterlimit: 10; transform-box: fill-box; transform-origin: 50% 50%; stroke: #1a1f36;" transform="matrix(-1, 0, 0, -1, -0.000031, -0.000007)"/>
    <path d="M 238.213 100.779 C 215.753 103.249 175.233 103.119 160.243 103.089 L 155.91 62.303 C 155.91 62.303 206.593 64.913 244.663 65.223 C 244.663 65.223 241.336 82.726 238.216 100.776 Z" style="fill: #ffffff; stroke-miterlimit: 10; transform-box: fill-box; transform-origin: 50% 50%; stroke: #1a1f36;" transform="matrix(-1, 0, 0, -1, -0.000004, -0.000004)"/>
    <path d="M 143.702 90.917 C 141.402 93.867 137.582 96.057 132.559 96.817 C 127.739 97.547 105.589 99.177 91.839 99.987 C 91.394 100.017 90.996 99.829 90.734 99.525 C 90.471 99.221 90.341 98.799 90.426 98.363 L 96.796 66.473 C 96.906 65.928 97.201 65.463 97.608 65.134 C 98.014 64.808 98.532 64.62 99.089 64.63 L 149.809 65.68 C 152.649 68.41 155.599 72.45 155.599 72.45 C 153.629 77.803 145.991 87.961 143.699 90.913 Z" style="fill: #ffffff; stroke-miterlimit: 10; transform-box: fill-box; transform-origin: 50% 50%; stroke: #1a1f36;" transform="matrix(-1, 0, 0, -1, 0.000006, 0.000015)"/>
    <path d="M 63.573 109.267 C 63.738 110.212 63.513 112.062 62.845 113.872 C 62.177 115.681 61.067 117.449 59.462 118.23 C 56.252 119.8 52.232 120.7 46.392 120.7 C 42.61 111.408 38.271 102.182 38.25 102.138 L 62.002 102.535 C 62.009 102.565 63.242 107.376 63.572 109.266 Z" style="fill: #ffffff; stroke-miterlimit: 10; transform-box: fill-box; transform-origin: 50% 50%; stroke: #1a1f36;" transform="matrix(-1, 0, 0, -1, 0, 0.000004)"/>
    <path d="M 251.673 172.747 C 251.423 169.767 250.313 161.877 250.313 152.377 C 250.313 142.877 250.683 127.107 251.673 120.697" style="fill: none; stroke-miterlimit: 10; transform-box: fill-box; transform-origin: 50% 50%; stroke: #1a1f36;" transform="matrix(-1, 0, 0, -1, -0.000019, 0)"/>
  </g>
</svg>
